# xmcd
#
# Track frame offsets:
#	182
#	12005
#	22657
#	34975
#	49777
#	61450
#	70710
#	83957
#	93260
#	103312
#
# Disc length: 1561 seconds
#
# Revision: 0
# Processed by: cddbd v1.5.1PL2 Copyright (c) Steve Scherf et al.
# Submitted via: audiograbber 1.83.01
#
DISCID=7606170a
DTITLE=Various Artist - Best Of Bluegrass
DYEAR=1991
DGENRE=Bluegrass
TTITLE0=Osborne Brothers - Rocky Top
TTITLE1=Lester Flatt and Earl Scruggs - Foggy Mountain Breakdown
TTITLE2=Wilma Lee and Stoney Cooper - Big Midnight Special
TTITLE3=Eric Weissberg and Steve Mandell - Dueling Banjos
TTITLE4=Jimmy Martin and The Sunny Mountain Boys - Sunny Side Of The Mountain
TTITLE5=Carl Jackson  - Orange Blossom Special
TTITLE6=Country Gentlemen - The Legend Of The Rebel Soldier
TTITLE7=Lester Flatt and Earl Scruggs - The Ballad Of Jed Clampett
TTITLE8=Mac Wiseman  - Jimmie Brown The Newsboy
TTITLE9=Bill Monroe  - Blue Moon Of Kentucky
EXTD=
EXTT0=
EXTT1=
EXTT2=
EXTT3=
EXTT4=
EXTT5=
EXTT6=
EXTT7=
EXTT8=
EXTT9=
PLAYORDER=
